<?xml version="1.0" encoding="utf-8"?>
<!-- Generator: Adobe Illustrator 16.2.0, SVG Export Plug-In . SVG Version: 6.00 Build 0)  -->
<!DOCTYPE svg PUBLIC "-//W3C//DTD SVG 1.1//EN" "http://www.w3.org/Graphics/SVG/1.1/DTD/svg11.dtd">
<svg version="1.1" id="Layer_1" xmlns="http://www.w3.org/2000/svg" xmlns:xlink="http://www.w3.org/1999/xlink" x="0px" y="0px"
	 width="54.931px" height="54.929px" viewBox="0 0 54.931 54.929" enable-background="new 0 0 54.931 54.929" xml:space="preserve">
<g>
	<circle fill="#FFFFFF" cx="27.465" cy="27.465" r="27.465"/>
	<g>
		<linearGradient id="SVGID_1_" gradientUnits="userSpaceOnUse" x1="20.3213" y1="26.77" x2="34.6924" y2="26.77">
			<stop  offset="0" style="stop-color:#00A672"/>
			<stop  offset="1" style="stop-color:#35C27A"/>
		</linearGradient>
		<path fill="url(#SVGID_1_)" d="M29.883,21.456v-2.657c0-0.399,0.019-0.706,0.055-0.924c0.038-0.222,0.12-0.436,0.254-0.649
			c0.132-0.211,0.342-0.357,0.636-0.437c0.294-0.083,0.681-0.123,1.169-0.123h2.659v-5.314h-4.251c-2.455,0-4.221,0.583-5.296,1.748
			c-1.07,1.169-1.607,2.886-1.607,5.157v3.2h-3.18v5.313h3.18v15.42h6.382v-15.42h4.246l0.563-5.313H29.883z M29.883,21.456"/>
	</g>
</g>
</svg>
