<?xml version="1.0" encoding="utf-8"?>
<!-- Generator: Adobe Illustrator 16.2.0, SVG Export Plug-In . SVG Version: 6.00 Build 0)  -->
<!DOCTYPE svg PUBLIC "-//W3C//DTD SVG 1.1//EN" "http://www.w3.org/Graphics/SVG/1.1/DTD/svg11.dtd">
<svg version="1.1" id="Layer_1" xmlns="http://www.w3.org/2000/svg" xmlns:xlink="http://www.w3.org/1999/xlink" x="0px" y="0px"
	 width="54.932px" height="54.928px" viewBox="0 0 54.932 54.928" enable-background="new 0 0 54.932 54.928" xml:space="preserve">
<g>
	<path fill="#FFFFFF" d="M54.931,27.465c0,15.168-12.295,27.463-27.468,27.463C12.297,54.928,0,42.633,0,27.465
		C0,12.3,12.297,0,27.464,0C42.636,0,54.931,12.3,54.931,27.465z"/>
	
		<linearGradient id="SVGID_1_" gradientUnits="userSpaceOnUse" x1="14.9929" y1="27.324" x2="39.9695" y2="27.324" gradientTransform="matrix(1 0 0 -1 -0.0151 54.6274)">
		<stop  offset="0" style="stop-color:#00A672"/>
		<stop  offset="1" style="stop-color:#35C27A"/>
	</linearGradient>
	<path fill="url(#SVGID_1_)" d="M37.456,17.313H17.475c-1.374,0-2.485,1.126-2.485,2.498l-0.012,14.986
		c0,1.374,1.123,2.497,2.497,2.497h19.981c1.373,0,2.498-1.123,2.498-2.497V19.811C39.954,18.438,38.829,17.313,37.456,17.313z
		 M39.835,23.791l-12.37,7.729l-12.369-7.729v-3.094l12.369,7.731l12.37-7.731V23.791z"/>
</g>
</svg>
