<?xml version="1.0" encoding="utf-8"?>
<!-- Generator: Adobe Illustrator 16.2.0, SVG Export Plug-In . SVG Version: 6.00 Build 0)  -->
<!DOCTYPE svg PUBLIC "-//W3C//DTD SVG 1.1//EN" "http://www.w3.org/Graphics/SVG/1.1/DTD/svg11.dtd">
<svg version="1.1" id="Layer_1" xmlns="http://www.w3.org/2000/svg" xmlns:xlink="http://www.w3.org/1999/xlink" x="0px" y="0px"
	 width="54.93px" height="54.929px" viewBox="0 0 54.93 54.929" enable-background="new 0 0 54.93 54.929" xml:space="preserve">
<g>
	<circle fill="#FFFFFF" cx="27.465" cy="27.465" r="27.465"/>
	<linearGradient id="SVGID_1_" gradientUnits="userSpaceOnUse" x1="13.0723" y1="27.873" x2="41.8584" y2="27.873">
		<stop  offset="0" style="stop-color:#00A672"/>
		<stop  offset="1" style="stop-color:#35C27A"/>
	</linearGradient>
	<path fill="url(#SVGID_1_)" d="M27.469,13.479h-0.007l0,0c-7.937,0-14.39,6.456-14.39,14.393c0,3.15,1.014,6.067,2.739,8.437
		l-1.794,5.348l5.533-1.769c2.276,1.507,4.992,2.378,7.918,2.378c7.936,0,14.39-6.456,14.39-14.394
		C41.858,19.937,35.404,13.479,27.469,13.479z"/>
	<path fill="#F8F8F8" d="M35.683,33.805c-0.347,0.979-1.725,1.793-2.824,2.031c-0.752,0.159-1.734,0.287-5.041-1.083
		c-4.229-1.752-6.955-6.05-7.166-6.329c-0.204-0.279-1.71-2.275-1.71-4.342c0-2.065,1.05-3.071,1.472-3.504
		c0.348-0.354,0.922-0.517,1.473-0.517c0.178,0,0.338,0.011,0.481,0.018c0.423,0.018,0.635,0.043,0.914,0.711
		c0.348,0.836,1.192,2.902,1.294,3.113c0.102,0.212,0.205,0.5,0.061,0.779c-0.135,0.288-0.253,0.416-0.465,0.661
		c-0.213,0.244-0.415,0.432-0.627,0.693c-0.194,0.229-0.414,0.474-0.17,0.896c0.245,0.415,1.092,1.794,2.336,2.902
		c1.607,1.431,2.91,1.887,3.375,2.081c0.348,0.145,0.762,0.109,1.015-0.159c0.322-0.349,0.72-0.925,1.125-1.49
		c0.287-0.407,0.651-0.458,1.033-0.313c0.389,0.135,2.444,1.151,2.868,1.361c0.421,0.213,0.7,0.313,0.804,0.491
		C36.029,31.984,36.029,32.822,35.683,33.805z"/>
</g>
</svg>
