<?xml version="1.0" encoding="utf-8"?>
<!-- Generator: Adobe Illustrator 16.2.0, SVG Export Plug-In . SVG Version: 6.00 Build 0)  -->
<!DOCTYPE svg PUBLIC "-//W3C//DTD SVG 1.1//EN" "http://www.w3.org/Graphics/SVG/1.1/DTD/svg11.dtd">
<svg version="1.1" id="Layer_1" xmlns="http://www.w3.org/2000/svg" xmlns:xlink="http://www.w3.org/1999/xlink" x="0px" y="0px"
	 width="54.928px" height="54.928px" viewBox="0 0 54.928 54.928" enable-background="new 0 0 54.928 54.928" xml:space="preserve">
<g>
	<path fill="#FFFFFF" d="M54.928,27.465c0,15.168-12.298,27.463-27.463,27.463C12.295,54.928,0,42.633,0,27.465
		C0,12.296,12.295,0,27.465,0C42.63,0,54.928,12.296,54.928,27.465z"/>
	<g>
		<g>
			
				<linearGradient id="SVGID_1_" gradientUnits="userSpaceOnUse" x1="198.8877" y1="28.1934" x2="228.0234" y2="28.1934" gradientTransform="matrix(1 0 0 1 -186.1875 0)">
				<stop  offset="0" style="stop-color:#00A672"/>
				<stop  offset="1" style="stop-color:#35C27A"/>
			</linearGradient>
			<path fill="url(#SVGID_1_)" d="M40.698,19.703c-1.051-1.253-2.99-1.759-6.699-1.759H20.541c-3.798,0-5.77,0.539-6.814,1.871
				C12.7,21.114,12.7,23.024,12.7,25.673v5.044c0,5.128,1.212,7.726,7.841,7.726h13.458c3.213,0,4.999-0.443,6.153-1.549
				c1.178-1.133,1.684-2.979,1.684-6.177v-5.044C41.836,22.881,41.758,20.959,40.698,19.703L40.698,19.703z M31.409,28.891
				l-6.114,3.195c-0.139,0.072-0.286,0.109-0.435,0.109c-0.17,0-0.34-0.049-0.488-0.14c-0.28-0.17-0.456-0.473-0.456-0.806v-6.366
				c0-0.328,0.176-0.633,0.456-0.803c0.276-0.17,0.63-0.181,0.923-0.031l6.108,3.176c0.31,0.159,0.508,0.482,0.508,0.832
				C31.911,28.405,31.719,28.728,31.409,28.891L31.409,28.891z M31.409,28.891"/>
		</g>
	</g>
</g>
</svg>
