<?xml version="1.0" encoding="utf-8"?>
<!-- Generator: Adobe Illustrator 16.2.0, SVG Export Plug-In . SVG Version: 6.00 Build 0)  -->
<!DOCTYPE svg PUBLIC "-//W3C//DTD SVG 1.1//EN" "http://www.w3.org/Graphics/SVG/1.1/DTD/svg11.dtd">
<svg version="1.1" id="Layer_1" xmlns="http://www.w3.org/2000/svg" xmlns:xlink="http://www.w3.org/1999/xlink" x="0px" y="0px"
	 width="220.841px" height="44.067px" viewBox="0 0 220.841 44.067" enable-background="new 0 0 220.841 44.067"
	 xml:space="preserve">
<g>
	<g>
		<g>
			<path fill="#FFFFFF" d="M82.293,26.876c-0.365,0.083-1.095,0.194-2.181,0.335c-1.089,0.14-2.568,0.207-4.419,0.207
				c-1.659,0-3.043-0.107-4.153-0.325c-1.11-0.228-1.987-0.548-2.632-0.971c-0.648-0.426-1.102-0.939-1.365-1.546
				c-0.263-0.603-0.392-1.272-0.392-1.999c0-1.776,0.624-3.078,1.876-3.906c1.253-0.827,3.249-1.24,5.998-1.24
				c2.218,0,3.885,0.078,4.994,0.243c1.109,0.161,1.868,0.278,2.274,0.361V26.876z M89.133,13.25c0-2.342-0.393-4.339-1.182-5.994
				c-0.786-1.655-1.887-2.985-3.296-3.996c-1.419-1.011-3.104-1.746-5.06-2.21c-1.96-0.464-4.127-0.696-6.509-0.696
				c-1.979,0-3.616,0.119-4.906,0.36c-1.293,0.24-2.32,0.577-3.09,1.001c-0.768,0.422-1.299,0.909-1.604,1.455
				c-0.303,0.542-0.454,1.101-0.454,1.663c0,0.808,0.211,1.494,0.636,2.061c0.423,0.567,0.757,0.949,1,1.152
				c0.443-0.366,1.36-0.811,2.754-1.336c1.392-0.521,3.239-0.784,5.539-0.784c1.374,0,2.625,0.101,3.756,0.298
				c1.13,0.206,2.099,0.569,2.908,1.093c0.804,0.526,1.446,1.253,1.903,2.177c0.47,0.934,0.702,2.105,0.702,3.517
				c-0.688-0.081-1.717-0.173-3.09-0.272c-1.376-0.103-2.826-0.149-4.363-0.149c-2.662,0-4.92,0.207-6.779,0.632
				c-1.861,0.421-3.362,1.062-4.512,1.911c-1.15,0.846-1.979,1.894-2.485,3.148c-0.505,1.251-0.754,2.706-0.754,4.356
				c0,1.255,0.212,2.477,0.634,3.665c0.423,1.194,1.212,2.241,2.362,3.149c1.152,0.913,2.726,1.64,4.724,2.183
				c1.999,0.545,4.572,0.815,7.725,0.815c1.573,0,3.083-0.041,4.537-0.12c1.454-0.081,2.766-0.173,3.938-0.273
				c1.168-0.103,2.19-0.202,3.057-0.303c0.868-0.101,1.506-0.193,1.909-0.271V13.25z"/>
			<path fill="#FFFFFF" d="M75.692,32.801c-3.177,0-5.809-0.278-7.818-0.829c-2.034-0.552-3.666-1.307-4.85-2.244
				c-1.201-0.947-2.034-2.062-2.476-3.312c-0.435-1.221-0.655-2.494-0.655-3.78c0-1.696,0.263-3.207,0.78-4.491
				c0.528-1.308,1.403-2.416,2.604-3.301c1.188-0.877,2.75-1.54,4.645-1.971c1.864-0.423,4.169-0.639,6.858-0.639
				c1.585,0,3.021,0.048,4.389,0.151c1.101,0.078,2.008,0.156,2.701,0.229c-0.04-1.177-0.259-2.174-0.656-2.961
				c-0.43-0.864-1.028-1.549-1.782-2.041c-0.759-0.495-1.695-0.844-2.778-1.039c-1.114-0.198-2.356-0.296-3.692-0.296
				c-2.24,0-4.064,0.254-5.416,0.762c-1.35,0.51-2.244,0.94-2.655,1.277l-0.224,0.185l-0.226-0.185
				c-0.27-0.227-0.617-0.622-1.058-1.212c-0.468-0.626-0.704-1.39-0.704-2.273c0-0.628,0.167-1.245,0.497-1.835
				c0.338-0.604,0.923-1.138,1.744-1.59c0.8-0.444,1.876-0.795,3.197-1.04C69.417,0.125,71.087,0,73.086,0
				c2.397,0,4.615,0.237,6.59,0.706c1.996,0.474,3.741,1.235,5.184,2.265c1.459,1.043,2.607,2.435,3.411,4.134
				c0.806,1.691,1.215,3.759,1.215,6.145v18.524l-0.284,0.056c-0.427,0.083-1.096,0.177-1.937,0.274
				c-0.869,0.101-1.894,0.202-3.068,0.303c-1.175,0.099-2.489,0.192-3.948,0.273C78.78,32.763,77.246,32.801,75.692,32.801
				 M74.78,12.941c-2.637,0-4.89,0.21-6.7,0.622c-1.8,0.411-3.273,1.033-4.384,1.852c-1.092,0.803-1.889,1.813-2.366,2.994
				c-0.484,1.2-0.729,2.621-0.729,4.228c0,1.206,0.206,2.399,0.615,3.545c0.397,1.122,1.153,2.126,2.248,2.991
				c1.109,0.88,2.655,1.59,4.598,2.117c1.948,0.532,4.515,0.803,7.631,0.803c1.541,0,3.061-0.038,4.518-0.118
				c1.45-0.083,2.757-0.174,3.926-0.272c1.167-0.101,2.183-0.203,3.046-0.302c0.654-0.075,1.196-0.147,1.597-0.214V13.25
				c0-2.277-0.384-4.246-1.147-5.843c-0.753-1.587-1.825-2.887-3.184-3.862c-1.368-0.974-3.028-1.699-4.935-2.152
				c-1.924-0.454-4.087-0.685-6.427-0.685c-1.954,0-3.583,0.12-4.84,0.354C67,1.293,65.997,1.616,65.262,2.025
				c-0.703,0.386-1.196,0.831-1.467,1.316c-0.27,0.487-0.408,0.986-0.408,1.491c0,0.736,0.184,1.34,0.564,1.849
				c0.336,0.451,0.575,0.729,0.745,0.904c0.521-0.348,1.379-0.745,2.601-1.207c1.433-0.536,3.338-0.808,5.664-0.808
				c1.375,0,2.66,0.104,3.817,0.306c1.176,0.214,2.199,0.598,3.039,1.145c0.86,0.562,1.544,1.341,2.029,2.316
				c0.49,0.977,0.738,2.211,0.738,3.674v0.399l-0.397-0.048c-0.719-0.086-1.753-0.175-3.072-0.271
				C77.766,12.991,76.349,12.941,74.78,12.941 M75.692,27.772c-1.676,0-3.095-0.112-4.22-0.335C70.3,27.2,69.4,26.867,68.714,26.417
				c-0.704-0.461-1.207-1.033-1.497-1.7c-0.279-0.644-0.421-1.363-0.421-2.143c0-1.891,0.684-3.304,2.036-4.201
				c1.323-0.871,3.347-1.295,6.192-1.295c2.275,0,3.926,0.081,5.046,0.245c1.19,0.173,1.896,0.285,2.292,0.365l0.283,0.059v9.415
				l-0.277,0.06c-0.386,0.085-1.132,0.2-2.212,0.341C79.07,27.702,77.566,27.772,75.692,27.772 M75.024,17.784
				c-2.663,0-4.613,0.399-5.804,1.182c-1.156,0.766-1.716,1.945-1.716,3.608c0,0.681,0.123,1.309,0.363,1.863
				c0.231,0.536,0.647,1.004,1.236,1.39c0.599,0.394,1.444,0.703,2.507,0.919c1.08,0.211,2.453,0.32,4.083,0.32
				c1.845,0,3.317-0.069,4.372-0.204c0.973-0.127,1.541-0.214,1.874-0.275v-8.258c-0.414-0.074-1.054-0.172-1.972-0.304
				C78.882,17.864,77.266,17.784,75.024,17.784"/>
			<path fill="#FFFFFF" d="M120.171,20.277c-0.465,1.207-1.1,2.261-1.909,3.148c-0.808,0.887-1.783,1.584-2.935,2.089
				c-1.15,0.504-2.414,0.758-3.787,0.758c-1.413,0-2.685-0.254-3.815-0.758c-1.13-0.505-2.11-1.202-2.935-2.089
				c-0.83-0.887-1.465-1.941-1.909-3.148c-0.442-1.215-0.666-2.522-0.666-3.939c0-1.372,0.224-2.652,0.666-3.847
				c0.444-1.188,1.079-2.217,1.909-3.088c0.825-0.868,1.805-1.551,2.935-2.056c1.13-0.505,2.402-0.759,3.815-0.759
				c1.374,0,2.637,0.244,3.787,0.727c1.152,0.482,2.127,1.152,2.935,2.002c0.81,0.847,1.444,1.867,1.909,3.054
				c0.464,1.193,0.696,2.517,0.696,3.967C120.867,17.754,120.635,19.062,120.171,20.277 M120.867,43.71h6.844V17.792
				c0-2.945-0.383-5.52-1.151-7.718c-0.767-2.201-1.857-4.017-3.27-5.448c-1.413-1.437-3.132-2.508-5.149-3.216
				c-2.019-0.705-4.259-1.057-6.723-1.057c-2.38,0-4.572,0.402-6.571,1.209c-1.997,0.812-3.724,1.92-5.175,3.33
				c-1.453,1.414-2.595,3.109-3.421,5.087c-0.828,1.979-1.242,4.12-1.242,6.421c0,2.345,0.393,4.492,1.182,6.45
				c0.785,1.959,1.877,3.643,3.269,5.057c1.392,1.412,3.028,2.513,4.904,3.301c1.88,0.788,3.927,1.181,6.145,1.181
				c2.343,0,4.402-0.444,6.18-1.334c1.775-0.889,3.17-1.977,4.179-3.271V43.71z"/>
			<path fill="#FFFFFF" d="M128.065,44.067h-7.551v-15.33c-0.964,1.013-2.192,1.897-3.667,2.634c-1.818,0.911-3.95,1.37-6.338,1.37
				c-2.248,0-4.361-0.406-6.279-1.207c-1.916-0.804-3.605-1.942-5.02-3.38c-1.423-1.443-2.551-3.184-3.347-5.17
				c-0.8-1.992-1.208-4.204-1.208-6.584c0-2.343,0.43-4.55,1.271-6.557c0.842-2.016,2.02-3.766,3.498-5.204
				c1.476-1.434,3.255-2.577,5.295-3.405c2.029-0.821,4.283-1.234,6.7-1.234c2.492,0,4.795,0.364,6.842,1.076
				c2.059,0.723,3.837,1.832,5.282,3.299c1.441,1.463,2.573,3.343,3.352,5.583c0.777,2.222,1.171,4.855,1.171,7.833V44.067z
				 M121.222,43.358h6.135V17.792c0-2.896-0.381-5.454-1.13-7.601c-0.747-2.14-1.82-3.931-3.188-5.319
				c-1.369-1.39-3.056-2.443-5.012-3.128c-1.971-0.688-4.195-1.038-6.608-1.038c-2.326,0-4.488,0.398-6.436,1.182
				c-1.952,0.793-3.656,1.89-5.064,3.258c-1.412,1.372-2.536,3.043-3.342,4.97c-0.805,1.922-1.213,4.035-1.213,6.284
				c0,2.288,0.389,4.414,1.155,6.319c0.764,1.9,1.836,3.561,3.193,4.94c1.352,1.369,2.963,2.454,4.79,3.221
				c1.831,0.764,3.852,1.152,6.007,1.152c2.278,0,4.304-0.435,6.021-1.297c1.729-0.862,3.094-1.927,4.058-3.168l0.634-0.817V43.358z
				 M111.542,26.626c-1.459,0-2.793-0.266-3.961-0.79c-1.17-0.522-2.197-1.253-3.052-2.171c-0.853-0.915-1.521-2.013-1.981-3.267
				c-0.455-1.248-0.686-2.614-0.686-4.06c0-1.406,0.231-2.742,0.686-3.969c0.462-1.235,1.129-2.313,1.985-3.209
				c0.847-0.891,1.873-1.61,3.048-2.136c1.168-0.521,2.502-0.789,3.961-0.789c1.417,0,2.734,0.254,3.92,0.755
				c1.183,0.496,2.214,1.197,3.055,2.082c0.833,0.874,1.5,1.938,1.983,3.17c0.478,1.228,0.721,2.606,0.721,4.096
				c0,1.447-0.243,2.814-0.721,4.066c-0.479,1.25-1.146,2.347-1.978,3.258c-0.84,0.922-1.869,1.655-3.056,2.175
				C114.279,26.36,112.958,26.626,111.542,26.626 M111.542,6.943c-1.359,0-2.595,0.245-3.672,0.726
				c-1.09,0.488-2.039,1.153-2.825,1.979c-0.79,0.827-1.406,1.825-1.831,2.966c-0.428,1.149-0.644,2.402-0.644,3.724
				c0,1.364,0.218,2.648,0.644,3.818c0.426,1.163,1.042,2.181,1.834,3.027c0.79,0.847,1.741,1.523,2.822,2.007
				c1.077,0.484,2.313,0.727,3.672,0.727c1.319,0,2.543-0.243,3.643-0.727c1.097-0.48,2.043-1.154,2.816-2.002
				c0.773-0.847,1.392-1.869,1.84-3.038c0.446-1.167,0.673-2.452,0.673-3.812c0-1.401-0.228-2.693-0.673-3.838
				c-0.446-1.144-1.065-2.133-1.834-2.938c-0.777-0.817-1.724-1.463-2.816-1.92C114.089,7.178,112.861,6.943,111.542,6.943"/>
			<path fill="#FFFFFF" d="M154.6,26.876c-0.365,0.083-1.092,0.194-2.181,0.335c-1.089,0.14-2.567,0.207-4.421,0.207
				c-1.655,0-3.041-0.107-4.15-0.325c-1.108-0.228-1.986-0.548-2.63-0.971c-0.649-0.426-1.103-0.939-1.366-1.546
				c-0.264-0.603-0.392-1.272-0.392-1.999c0-1.776,0.622-3.078,1.875-3.906c1.254-0.827,3.25-1.24,5.998-1.24
				c2.219,0,3.885,0.078,4.995,0.243c1.109,0.161,1.865,0.278,2.272,0.361V26.876z M161.441,13.25c0-2.342-0.394-4.339-1.181-5.994
				c-0.786-1.655-1.889-2.985-3.296-3.996c-1.417-1.011-3.104-1.746-5.061-2.21c-1.958-0.464-4.125-0.696-6.507-0.696
				c-1.979,0-3.616,0.119-4.906,0.36c-1.293,0.24-2.322,0.577-3.09,1.001c-0.767,0.422-1.299,0.909-1.604,1.455
				c-0.304,0.542-0.454,1.101-0.454,1.663c0,0.808,0.211,1.494,0.635,2.061c0.423,0.567,0.755,0.949,1,1.152
				c0.443-0.366,1.36-0.811,2.754-1.336c1.393-0.521,3.24-0.784,5.54-0.784c1.372,0,2.624,0.101,3.754,0.298
				c1.13,0.206,2.099,0.569,2.908,1.093c0.806,0.526,1.445,1.253,1.906,2.177c0.468,0.934,0.7,2.105,0.7,3.517
				c-0.691-0.081-1.718-0.173-3.09-0.272c-1.377-0.103-2.827-0.149-4.364-0.149c-2.662,0-4.919,0.207-6.778,0.632
				c-1.86,0.421-3.362,1.062-4.513,1.911c-1.15,0.846-1.979,1.894-2.485,3.148c-0.505,1.251-0.755,2.706-0.755,4.356
				c0,1.255,0.212,2.477,0.635,3.665c0.425,1.194,1.212,2.241,2.363,3.149c1.15,0.913,2.723,1.64,4.725,2.183
				c1.998,0.545,4.57,0.815,7.72,0.815c1.574,0,3.086-0.041,4.541-0.12c1.455-0.081,2.765-0.173,3.938-0.273
				c1.17-0.103,2.191-0.202,3.057-0.303c0.868-0.101,1.506-0.193,1.909-0.271V13.25z"/>
			<path fill="#FFFFFF" d="M147.999,32.801c-3.177,0-5.808-0.278-7.814-0.829c-2.034-0.552-3.667-1.305-4.851-2.244
				c-1.202-0.947-2.034-2.062-2.478-3.312c-0.433-1.221-0.654-2.494-0.654-3.78c0-1.696,0.263-3.207,0.778-4.491
				c0.528-1.308,1.404-2.416,2.605-3.301c1.189-0.877,2.75-1.54,4.645-1.971c1.861-0.423,4.169-0.639,6.856-0.639
				c1.588,0,3.025,0.048,4.39,0.151c1.104,0.078,2.008,0.156,2.703,0.229c-0.04-1.177-0.262-2.174-0.658-2.961
				c-0.428-0.864-1.026-1.549-1.781-2.041c-0.76-0.495-1.694-0.844-2.778-1.039c-1.114-0.198-2.357-0.296-3.691-0.296
				c-2.242,0-4.065,0.254-5.417,0.762c-1.349,0.51-2.244,0.94-2.654,1.277l-0.226,0.185l-0.224-0.185
				c-0.271-0.227-0.615-0.622-1.058-1.212c-0.468-0.626-0.706-1.39-0.706-2.273c0-0.626,0.169-1.243,0.501-1.835
				c0.336-0.604,0.922-1.138,1.741-1.59c0.801-0.444,1.876-0.795,3.198-1.04c1.297-0.242,2.97-0.366,4.97-0.366
				c2.395,0,4.614,0.237,6.589,0.706c1.997,0.474,3.742,1.235,5.184,2.265c1.459,1.043,2.607,2.435,3.41,4.134
				c0.806,1.692,1.216,3.759,1.216,6.145v18.524l-0.287,0.056c-0.424,0.083-1.094,0.177-1.936,0.274
				c-0.869,0.101-1.894,0.202-3.067,0.303c-1.174,0.099-2.488,0.192-3.946,0.273C151.086,32.763,149.552,32.801,147.999,32.801
				 M147.086,12.941c-2.634,0-4.887,0.21-6.701,0.622c-1.797,0.411-3.271,1.033-4.381,1.852c-1.092,0.803-1.889,1.813-2.366,2.994
				c-0.485,1.2-0.729,2.621-0.729,4.228c0,1.206,0.207,2.399,0.613,3.545c0.397,1.122,1.155,2.126,2.25,2.991
				c1.11,0.88,2.656,1.59,4.597,2.117c1.948,0.532,4.516,0.803,7.629,0.803c1.54,0,3.063-0.038,4.521-0.118
				c1.449-0.083,2.755-0.174,3.925-0.272c1.166-0.101,2.183-0.203,3.046-0.302c0.653-0.075,1.195-0.147,1.597-0.214V13.25
				c0-2.277-0.387-4.246-1.147-5.843c-0.753-1.587-1.825-2.887-3.184-3.862c-1.369-0.974-3.027-1.699-4.936-2.152
				c-1.921-0.454-4.085-0.685-6.426-0.685c-1.956,0-3.583,0.12-4.842,0.354c-1.245,0.231-2.249,0.554-2.983,0.963
				c-0.702,0.386-1.196,0.831-1.466,1.316c-0.273,0.487-0.411,0.988-0.411,1.491c0,0.736,0.185,1.34,0.566,1.849
				c0.336,0.451,0.577,0.729,0.745,0.904c0.521-0.348,1.38-0.745,2.602-1.207c1.431-0.536,3.338-0.808,5.666-0.808
				c1.375,0,2.658,0.104,3.816,0.306c1.177,0.214,2.2,0.598,3.039,1.145c0.86,0.562,1.543,1.341,2.028,2.316
				c0.488,0.977,0.737,2.211,0.737,3.674v0.399l-0.394-0.048c-0.72-0.086-1.754-0.175-3.074-0.271
				C150.074,12.991,148.656,12.941,147.086,12.941 M147.999,27.772c-1.675,0-3.093-0.112-4.218-0.335
				c-1.172-0.237-2.074-0.571-2.761-1.021c-0.701-0.461-1.203-1.033-1.496-1.7c-0.277-0.644-0.419-1.363-0.419-2.143
				c0-1.891,0.684-3.304,2.034-4.201c1.325-0.871,3.35-1.295,6.194-1.295c2.276,0,3.927,0.081,5.046,0.245
				c1.192,0.173,1.895,0.285,2.291,0.365l0.283,0.059v9.415l-0.276,0.06c-0.387,0.085-1.132,0.2-2.213,0.341
				C151.378,27.702,149.875,27.772,147.999,27.772 M147.333,17.784c-2.664,0-4.615,0.399-5.802,1.182
				c-1.156,0.766-1.717,1.945-1.717,3.608c0,0.681,0.121,1.309,0.36,1.863c0.236,0.536,0.651,1.004,1.236,1.39
				c0.6,0.394,1.444,0.703,2.509,0.919c1.08,0.211,2.453,0.32,4.081,0.32c1.847,0,3.318-0.069,4.375-0.204
				c0.97-0.127,1.54-0.214,1.873-0.275v-8.258c-0.413-0.074-1.053-0.172-1.969-0.304C151.19,17.864,149.572,17.784,147.333,17.784"
				/>
			<path fill="#FFFFFF" d="M168.528,31.602h6.902V14.038c0-5.005,2.361-7.51,7.091-7.51c1.288,0,2.44,0.14,3.451,0.422
				c1.004,0.283,1.852,0.589,2.541,0.911c0.243-0.162,0.554-0.567,0.938-1.215c0.384-0.641,0.576-1.305,0.576-1.997
				c0-1.449-0.8-2.532-2.39-3.239c-1.599-0.706-3.666-1.059-6.21-1.059c-4.036,0-7.199,1.022-9.48,3.055
				c-2.279,2.043-3.418,4.92-3.418,8.632V31.602z"/>
			<path fill="#FFFFFF" d="M175.784,31.954h-7.611V12.042c0-3.803,1.192-6.796,3.537-8.898C174.051,1.056,177.319,0,181.426,0
				c2.582,0,4.719,0.366,6.352,1.087c1.725,0.768,2.6,1.966,2.6,3.564c0,0.751-0.211,1.483-0.623,2.177
				c-0.421,0.708-0.753,1.132-1.045,1.327l-0.166,0.112l-0.183-0.084c-0.671-0.316-1.509-0.617-2.487-0.892
				c-0.971-0.274-2.101-0.41-3.354-0.41c-4.535,0-6.736,2.339-6.736,7.155V31.954z M168.88,31.248h6.196v-17.21
				c0-5.218,2.501-7.862,7.444-7.862c1.319,0,2.513,0.146,3.545,0.436c0.919,0.257,1.722,0.54,2.389,0.835
				c0.151-0.153,0.373-0.439,0.693-0.981c0.347-0.583,0.523-1.194,0.523-1.814c0-1.312-0.713-2.265-2.179-2.917
				c-1.542-0.682-3.583-1.027-6.065-1.027c-3.927,0-7.038,0.996-9.244,2.964c-2.189,1.96-3.302,4.778-3.302,8.37V31.248z"/>
			<path fill="#FFFFFF" d="M213.645,26.876c-0.365,0.083-1.09,0.194-2.18,0.335c-1.09,0.14-2.568,0.207-4.42,0.207
				c-1.657,0-3.041-0.107-4.151-0.325c-1.111-0.228-1.987-0.548-2.63-0.971c-0.65-0.426-1.104-0.939-1.367-1.546
				c-0.264-0.603-0.393-1.272-0.393-1.999c0-1.776,0.625-3.078,1.877-3.906c1.252-0.827,3.25-1.24,5.998-1.24
				c2.219,0,3.885,0.078,4.994,0.243c1.11,0.161,1.867,0.278,2.273,0.361V26.876z M220.486,13.25c0-2.342-0.393-4.339-1.18-5.994
				c-0.786-1.655-1.89-2.985-3.299-3.996c-1.417-1.011-3.101-1.746-5.059-2.21c-1.959-0.464-4.127-0.696-6.507-0.696
				c-1.982,0-3.617,0.119-4.907,0.36c-1.295,0.24-2.322,0.577-3.089,1.001c-0.767,0.422-1.302,0.909-1.604,1.455
				c-0.305,0.542-0.455,1.101-0.455,1.663c0,0.808,0.212,1.494,0.637,2.061c0.422,0.567,0.756,0.949,0.998,1.152
				c0.444-0.366,1.362-0.811,2.754-1.336c1.395-0.521,3.242-0.784,5.543-0.784c1.371,0,2.625,0.101,3.753,0.298
				c1.13,0.206,2.099,0.569,2.908,1.093c0.806,0.526,1.444,1.253,1.906,2.177c0.468,0.934,0.7,2.105,0.7,3.517
				c-0.691-0.081-1.719-0.173-3.091-0.272c-1.375-0.103-2.825-0.149-4.362-0.149c-2.661,0-4.922,0.207-6.778,0.632
				c-1.862,0.421-3.363,1.062-4.513,1.911c-1.149,0.846-1.981,1.894-2.485,3.148c-0.506,1.251-0.755,2.706-0.755,4.356
				c0,1.255,0.212,2.477,0.635,3.665c0.423,1.194,1.211,2.241,2.362,3.149c1.151,0.913,2.727,1.64,4.725,2.183
				c1.998,0.545,4.57,0.815,7.722,0.815c1.573,0,3.083-0.041,4.539-0.12c1.456-0.081,2.765-0.173,3.937-0.273
				c1.17-0.103,2.19-0.202,3.058-0.303c0.867-0.101,1.505-0.193,1.908-0.271V13.25z"/>
			<path fill="#FFFFFF" d="M207.045,32.801c-3.177,0-5.806-0.278-7.814-0.829c-2.036-0.552-3.667-1.307-4.85-2.244
				c-1.201-0.947-2.035-2.062-2.477-3.312c-0.435-1.218-0.655-2.49-0.655-3.78c0-1.699,0.261-3.208,0.777-4.491
				c0.527-1.308,1.406-2.418,2.605-3.301c1.188-0.877,2.75-1.54,4.645-1.971c1.861-0.423,4.169-0.639,6.858-0.639
				c1.585,0,3.022,0.048,4.387,0.151c1.104,0.078,2.01,0.156,2.703,0.229c-0.04-1.177-0.26-2.174-0.657-2.961
				c-0.428-0.864-1.026-1.549-1.781-2.041c-0.761-0.495-1.695-0.844-2.778-1.039c-1.114-0.198-2.356-0.296-3.69-0.296
				c-2.245,0-4.066,0.254-5.416,0.762c-1.352,0.51-2.246,0.94-2.657,1.277l-0.224,0.185l-0.226-0.185
				c-0.27-0.227-0.617-0.622-1.058-1.212c-0.468-0.626-0.706-1.392-0.706-2.273c0-0.626,0.169-1.245,0.501-1.835
				c0.334-0.604,0.921-1.138,1.742-1.59c0.8-0.444,1.875-0.795,3.197-1.04C200.771,0.125,202.443,0,204.441,0
				c2.395,0,4.612,0.237,6.589,0.706c1.996,0.474,3.741,1.235,5.184,2.265c1.459,1.043,2.607,2.435,3.411,4.134
				c0.808,1.692,1.216,3.759,1.216,6.145v18.524l-0.287,0.056c-0.424,0.083-1.094,0.177-1.936,0.274
				c-0.867,0.101-1.894,0.202-3.066,0.303c-1.176,0.099-2.489,0.192-3.948,0.273C210.132,32.763,208.6,32.801,207.045,32.801
				 M206.134,12.941c-2.636,0-4.889,0.21-6.7,0.622c-1.8,0.411-3.273,1.033-4.382,1.852c-1.094,0.803-1.891,1.813-2.37,2.994
				c-0.48,1.2-0.728,2.621-0.728,4.228c0,1.208,0.207,2.399,0.616,3.545c0.395,1.122,1.153,2.126,2.248,2.991
				c1.109,0.88,2.657,1.59,4.598,2.117c1.949,0.532,4.514,0.803,7.629,0.803c1.54,0,3.06-0.038,4.519-0.118
				c1.452-0.083,2.758-0.174,3.926-0.272c1.166-0.101,2.183-0.203,3.048-0.302c0.651-0.075,1.193-0.147,1.594-0.214V13.25
				c0-2.277-0.387-4.246-1.146-5.843c-0.753-1.587-1.824-2.887-3.184-3.862c-1.367-0.974-3.027-1.699-4.936-2.152
				c-1.923-0.454-4.085-0.685-6.425-0.685c-1.956,0-3.583,0.12-4.843,0.354c-1.245,0.231-2.248,0.554-2.979,0.963
				c-0.706,0.386-1.199,0.831-1.47,1.314c-0.272,0.489-0.408,0.987-0.408,1.492c0,0.734,0.183,1.34,0.562,1.85
				c0.338,0.45,0.577,0.729,0.748,0.903c0.521-0.348,1.378-0.745,2.602-1.207c1.429-0.536,3.336-0.808,5.664-0.808
				c1.375,0,2.657,0.104,3.815,0.306c1.178,0.214,2.199,0.598,3.04,1.145c0.86,0.562,1.544,1.341,2.028,2.316
				c0.488,0.977,0.739,2.211,0.739,3.674v0.399l-0.396-0.048c-0.721-0.086-1.754-0.175-3.074-0.271
				C209.121,12.991,207.703,12.941,206.134,12.941 M207.045,27.772c-1.673,0-3.092-0.112-4.219-0.335
				c-1.172-0.237-2.074-0.571-2.759-1.021c-0.7-0.461-1.205-1.033-1.493-1.7c-0.281-0.646-0.423-1.366-0.423-2.143
				c0-1.891,0.684-3.304,2.036-4.201c1.325-0.871,3.349-1.295,6.19-1.295c2.278,0,3.928,0.081,5.048,0.245
				c1.19,0.173,1.897,0.285,2.292,0.365l0.283,0.059v9.415l-0.276,0.06c-0.385,0.085-1.128,0.2-2.215,0.341
				C210.423,27.702,208.92,27.772,207.045,27.772 M206.376,17.784c-2.661,0-4.613,0.399-5.8,1.182
				c-1.155,0.766-1.718,1.945-1.718,3.608c0,0.681,0.121,1.305,0.361,1.863c0.236,0.536,0.652,1.004,1.235,1.39
				c0.601,0.394,1.446,0.703,2.51,0.919c1.079,0.211,2.453,0.32,4.081,0.32c1.847,0,3.318-0.069,4.374-0.204
				c0.973-0.127,1.542-0.214,1.873-0.275v-8.258c-0.412-0.074-1.052-0.172-1.968-0.304
				C210.236,17.864,208.618,17.784,206.376,17.784"/>
			<path fill="#FFFFFF" d="M56.578,0.017L52.343,0c-2.309,0-4.204,1.888-4.204,4.211v12.561c0,4.315-3.503,7.822-7.814,7.822
				c-4.31,0-7.817-3.507-7.817-7.822V0.353h-4.216c-2.328,0-4.22,1.887-4.22,4.212v12.207c0,4.315-3.506,7.822-7.816,7.822
				c-3.625,0-6.832-2.568-7.621-6.107c-0.102-0.46-0.19-5.513-0.19-13.731V0.353L4.084,0.366C1.894,0.384,0,2.275,0,4.604
				C0,6.203,0.115,18.884,0.275,19.74c1.423,7.692,8.147,13.28,15.982,13.28c4.347,0,8.425-1.698,11.495-4.771l0.541-0.543
				l0.542,0.543c3.065,3.073,7.152,4.771,11.491,4.771c8.96,0,16.252-7.289,16.252-16.249V0.017z"/>
		</g>
	</g>
</g>
</svg>
